<mxfile host="app.diagrams.net" modified="2023-05-24T16:04:37.664Z" agent="Mozilla/5.0 (Windows NT 10.0; Win64; x64) AppleWebKit/537.36 (KHTML, like Gecko) Chrome/113.0.0.0 Safari/537.36" etag="8AdenUrd1dpAh4yE10CC" version="21.3.3" type="google">
  <diagram id="R2lEEEUBdFMjLlhIrx00" name="Page-1">
    <mxGraphModel dx="2074" dy="1864" grid="1" gridSize="10" guides="1" tooltips="1" connect="1" arrows="1" fold="1" page="1" pageScale="1" pageWidth="850" pageHeight="1100" math="0" shadow="0" extFonts="Permanent Marker^https://fonts.googleapis.com/css?family=Permanent+Marker">
      <root>
        <mxCell id="0" />
        <mxCell id="1" parent="0" />
        <mxCell id="_BEPI9c5hfQ9F48i55fc-5" style="edgeStyle=none;rounded=0;orthogonalLoop=1;jettySize=auto;html=1;entryX=1;entryY=0;entryDx=0;entryDy=0;endArrow=none;endFill=0;" parent="1" source="_BEPI9c5hfQ9F48i55fc-1" target="_BEPI9c5hfQ9F48i55fc-4" edge="1">
          <mxGeometry relative="1" as="geometry" />
        </mxCell>
        <mxCell id="G5Km5KM9y0l9eOGYp1cR-38" style="rounded=0;orthogonalLoop=1;jettySize=auto;html=1;entryX=0;entryY=0.5;entryDx=0;entryDy=0;endArrow=none;endFill=0;" parent="1" source="_BEPI9c5hfQ9F48i55fc-1" target="G5Km5KM9y0l9eOGYp1cR-37" edge="1">
          <mxGeometry relative="1" as="geometry">
            <Array as="points">
              <mxPoint x="385" y="190.43" />
            </Array>
          </mxGeometry>
        </mxCell>
        <mxCell id="mvCyFmwDbxFd1LSHAD4m-32" style="rounded=0;orthogonalLoop=1;jettySize=auto;html=1;entryX=0;entryY=0.5;entryDx=0;entryDy=0;endArrow=none;endFill=0;" parent="1" source="_BEPI9c5hfQ9F48i55fc-1" target="mvCyFmwDbxFd1LSHAD4m-27" edge="1">
          <mxGeometry relative="1" as="geometry" />
        </mxCell>
        <mxCell id="_BEPI9c5hfQ9F48i55fc-1" value="Collezionista" style="rounded=0;whiteSpace=wrap;html=1;" parent="1" vertex="1">
          <mxGeometry x="325" y="46.43" width="120" height="60" as="geometry" />
        </mxCell>
        <mxCell id="_BEPI9c5hfQ9F48i55fc-3" style="rounded=0;orthogonalLoop=1;jettySize=auto;html=1;entryX=0;entryY=0.5;entryDx=0;entryDy=0;endArrow=none;endFill=0;" parent="1" source="_BEPI9c5hfQ9F48i55fc-2" target="_BEPI9c5hfQ9F48i55fc-1" edge="1">
          <mxGeometry relative="1" as="geometry" />
        </mxCell>
        <mxCell id="_BEPI9c5hfQ9F48i55fc-2" value="Nickname" style="ellipse;whiteSpace=wrap;html=1;fontStyle=4" parent="1" vertex="1">
          <mxGeometry x="120" y="36.43" width="120" height="80" as="geometry" />
        </mxCell>
        <mxCell id="_BEPI9c5hfQ9F48i55fc-4" value="Email" style="ellipse;whiteSpace=wrap;html=1;fontStyle=4" parent="1" vertex="1">
          <mxGeometry x="130" y="126.43" width="120" height="80" as="geometry" />
        </mxCell>
        <mxCell id="_BEPI9c5hfQ9F48i55fc-8" style="edgeStyle=none;rounded=0;orthogonalLoop=1;jettySize=auto;html=1;entryX=1;entryY=0;entryDx=0;entryDy=0;endArrow=none;endFill=0;" parent="1" source="_BEPI9c5hfQ9F48i55fc-95" target="_BEPI9c5hfQ9F48i55fc-7" edge="1">
          <mxGeometry relative="1" as="geometry">
            <mxPoint x="730" y="-355.38461538461524" as="sourcePoint" />
          </mxGeometry>
        </mxCell>
        <mxCell id="_BEPI9c5hfQ9F48i55fc-53" style="edgeStyle=none;rounded=0;orthogonalLoop=1;jettySize=auto;html=1;entryX=0;entryY=0.5;entryDx=0;entryDy=0;endArrow=none;endFill=0;exitX=1;exitY=1;exitDx=0;exitDy=0;" parent="1" source="_BEPI9c5hfQ9F48i55fc-95" target="hIdb89uVxdYaDY5rnDA6-11" edge="1">
          <mxGeometry relative="1" as="geometry">
            <mxPoint x="900" y="-280" as="sourcePoint" />
            <mxPoint x="940" y="-170" as="targetPoint" />
          </mxGeometry>
        </mxCell>
        <mxCell id="_BEPI9c5hfQ9F48i55fc-71" style="edgeStyle=none;rounded=0;orthogonalLoop=1;jettySize=auto;html=1;entryX=1;entryY=1;entryDx=0;entryDy=0;endArrow=none;endFill=0;exitX=0;exitY=0.25;exitDx=0;exitDy=0;" parent="1" source="jPhQAOdgmPTJR-V8zWTI-30" target="_BEPI9c5hfQ9F48i55fc-70" edge="1">
          <mxGeometry relative="1" as="geometry">
            <mxPoint x="820" y="-389.9999999999998" as="sourcePoint" />
          </mxGeometry>
        </mxCell>
        <mxCell id="_BEPI9c5hfQ9F48i55fc-7" value="Titolo" style="ellipse;whiteSpace=wrap;html=1;fontStyle=4" parent="1" vertex="1">
          <mxGeometry x="535" y="-253.25" width="57.5" height="46.5" as="geometry" />
        </mxCell>
        <mxCell id="_BEPI9c5hfQ9F48i55fc-10" style="edgeStyle=none;rounded=0;orthogonalLoop=1;jettySize=auto;html=1;entryX=0;entryY=0.75;entryDx=0;entryDy=0;endArrow=none;endFill=0;" parent="1" source="_BEPI9c5hfQ9F48i55fc-9" target="_BEPI9c5hfQ9F48i55fc-95" edge="1">
          <mxGeometry relative="1" as="geometry">
            <mxPoint x="790" y="-389.9999999999998" as="targetPoint" />
          </mxGeometry>
        </mxCell>
        <mxCell id="_BEPI9c5hfQ9F48i55fc-9" value="Anno di Uscita" style="ellipse;whiteSpace=wrap;html=1;fontStyle=4" parent="1" vertex="1">
          <mxGeometry x="495" y="-355.25" width="120" height="80" as="geometry" />
        </mxCell>
        <mxCell id="_BEPI9c5hfQ9F48i55fc-17" value="" style="rounded=0;whiteSpace=wrap;html=1;" parent="1" vertex="1">
          <mxGeometry x="700" y="36.43" width="140" height="80" as="geometry" />
        </mxCell>
        <mxCell id="_BEPI9c5hfQ9F48i55fc-14" style="edgeStyle=none;rounded=0;orthogonalLoop=1;jettySize=auto;html=1;entryX=0.5;entryY=0;entryDx=0;entryDy=0;endArrow=none;endFill=0;exitX=0.5;exitY=1;exitDx=0;exitDy=0;" parent="1" source="_BEPI9c5hfQ9F48i55fc-17" target="_BEPI9c5hfQ9F48i55fc-13" edge="1">
          <mxGeometry relative="1" as="geometry" />
        </mxCell>
        <mxCell id="G5Km5KM9y0l9eOGYp1cR-41" style="rounded=0;orthogonalLoop=1;jettySize=auto;html=1;entryX=0.5;entryY=0;entryDx=0;entryDy=0;endArrow=none;endFill=0;exitX=0.75;exitY=1;exitDx=0;exitDy=0;" parent="1" source="_BEPI9c5hfQ9F48i55fc-17" target="G5Km5KM9y0l9eOGYp1cR-40" edge="1">
          <mxGeometry relative="1" as="geometry" />
        </mxCell>
        <mxCell id="_BEPI9c5hfQ9F48i55fc-11" value="Collezione di dischi" style="rounded=0;whiteSpace=wrap;html=1;" parent="1" vertex="1">
          <mxGeometry x="710" y="46.43" width="120" height="60" as="geometry" />
        </mxCell>
        <mxCell id="_BEPI9c5hfQ9F48i55fc-13" value="Nome" style="ellipse;whiteSpace=wrap;html=1;fontStyle=4" parent="1" vertex="1">
          <mxGeometry x="785" y="200.43" width="120" height="80" as="geometry" />
        </mxCell>
        <mxCell id="_BEPI9c5hfQ9F48i55fc-70" value="Barcode" style="ellipse;whiteSpace=wrap;html=1;fontStyle=0" parent="1" vertex="1">
          <mxGeometry x="255" y="-230" width="90" height="50" as="geometry" />
        </mxCell>
        <mxCell id="_BEPI9c5hfQ9F48i55fc-89" style="edgeStyle=none;rounded=0;orthogonalLoop=1;jettySize=auto;html=1;entryX=0.5;entryY=1;entryDx=0;entryDy=0;endArrow=none;endFill=0;exitX=0.5;exitY=0;exitDx=0;exitDy=0;" parent="1" source="B4FTuvSRuAMlY6wqXQve-10" target="_BEPI9c5hfQ9F48i55fc-88" edge="1">
          <mxGeometry relative="1" as="geometry">
            <mxPoint x="1223.636363636364" y="-530" as="sourcePoint" />
          </mxGeometry>
        </mxCell>
        <mxCell id="_BEPI9c5hfQ9F48i55fc-76" style="edgeStyle=none;rounded=0;orthogonalLoop=1;jettySize=auto;html=1;entryX=0.5;entryY=1;entryDx=0;entryDy=0;endArrow=none;endFill=0;exitX=0.75;exitY=1;exitDx=0;exitDy=0;" parent="1" source="G5Km5KM9y0l9eOGYp1cR-2" target="_BEPI9c5hfQ9F48i55fc-74" edge="1">
          <mxGeometry relative="1" as="geometry" />
        </mxCell>
        <mxCell id="_BEPI9c5hfQ9F48i55fc-77" style="edgeStyle=none;rounded=0;orthogonalLoop=1;jettySize=auto;html=1;endArrow=none;endFill=0;entryX=0;entryY=0.5;entryDx=0;entryDy=0;exitX=0.5;exitY=0;exitDx=0;exitDy=0;" parent="1" source="G5Km5KM9y0l9eOGYp1cR-2" target="_BEPI9c5hfQ9F48i55fc-75" edge="1">
          <mxGeometry relative="1" as="geometry" />
        </mxCell>
        <mxCell id="_BEPI9c5hfQ9F48i55fc-80" style="edgeStyle=none;rounded=0;orthogonalLoop=1;jettySize=auto;html=1;entryX=0;entryY=0;entryDx=0;entryDy=0;endArrow=none;endFill=0;exitX=0.5;exitY=1;exitDx=0;exitDy=0;" parent="1" source="G5Km5KM9y0l9eOGYp1cR-2" target="_BEPI9c5hfQ9F48i55fc-79" edge="1">
          <mxGeometry relative="1" as="geometry" />
        </mxCell>
        <mxCell id="_BEPI9c5hfQ9F48i55fc-81" style="edgeStyle=none;rounded=0;orthogonalLoop=1;jettySize=auto;html=1;entryX=0;entryY=0.5;entryDx=0;entryDy=0;endArrow=none;endFill=0;exitX=1;exitY=0.5;exitDx=0;exitDy=0;" parent="1" source="G5Km5KM9y0l9eOGYp1cR-2" target="_BEPI9c5hfQ9F48i55fc-78" edge="1">
          <mxGeometry relative="1" as="geometry" />
        </mxCell>
        <mxCell id="_BEPI9c5hfQ9F48i55fc-86" style="edgeStyle=none;rounded=0;orthogonalLoop=1;jettySize=auto;html=1;entryX=1;entryY=0.5;entryDx=0;entryDy=0;endArrow=none;endFill=0;" parent="1" source="_BEPI9c5hfQ9F48i55fc-73" target="hIdb89uVxdYaDY5rnDA6-11" edge="1">
          <mxGeometry relative="1" as="geometry">
            <mxPoint x="1040" y="-170" as="targetPoint" />
          </mxGeometry>
        </mxCell>
        <mxCell id="_BEPI9c5hfQ9F48i55fc-73" value="Autore" style="rounded=0;whiteSpace=wrap;html=1;" parent="1" vertex="1">
          <mxGeometry x="1190" y="-200" width="120" height="60" as="geometry" />
        </mxCell>
        <mxCell id="_BEPI9c5hfQ9F48i55fc-74" value="Nome" style="ellipse;whiteSpace=wrap;html=1;fontStyle=4" parent="1" vertex="1">
          <mxGeometry x="1592.5" y="210" width="120" height="80" as="geometry" />
        </mxCell>
        <mxCell id="_BEPI9c5hfQ9F48i55fc-75" value="Cognome" style="ellipse;whiteSpace=wrap;html=1;fontStyle=4" parent="1" vertex="1">
          <mxGeometry x="1632.5" y="-20" width="120" height="80" as="geometry" />
        </mxCell>
        <mxCell id="_BEPI9c5hfQ9F48i55fc-78" value="Data di nascita" style="ellipse;whiteSpace=wrap;html=1;fontStyle=4" parent="1" vertex="1">
          <mxGeometry x="1647.5" y="110" width="120" height="80" as="geometry" />
        </mxCell>
        <mxCell id="_BEPI9c5hfQ9F48i55fc-79" value="Luogo di nascita" style="ellipse;whiteSpace=wrap;html=1;fontStyle=4" parent="1" vertex="1">
          <mxGeometry x="1452.5" y="210" width="120" height="80" as="geometry" />
        </mxCell>
        <mxCell id="_BEPI9c5hfQ9F48i55fc-88" value="Titolo" style="ellipse;whiteSpace=wrap;html=1;fontStyle=4" parent="1" vertex="1">
          <mxGeometry x="1350" y="-756.5" width="120" height="80" as="geometry" />
        </mxCell>
        <mxCell id="_BEPI9c5hfQ9F48i55fc-91" style="edgeStyle=none;rounded=0;orthogonalLoop=1;jettySize=auto;html=1;entryX=0.75;entryY=0;entryDx=0;entryDy=0;endArrow=none;endFill=0;" parent="1" source="_BEPI9c5hfQ9F48i55fc-90" target="B4FTuvSRuAMlY6wqXQve-10" edge="1">
          <mxGeometry relative="1" as="geometry">
            <mxPoint x="1255" y="-530" as="targetPoint" />
          </mxGeometry>
        </mxCell>
        <mxCell id="_BEPI9c5hfQ9F48i55fc-90" value="Durata" style="ellipse;whiteSpace=wrap;html=1;" parent="1" vertex="1">
          <mxGeometry x="1360" y="-617" width="120" height="80" as="geometry" />
        </mxCell>
        <mxCell id="_BEPI9c5hfQ9F48i55fc-94" style="edgeStyle=none;rounded=0;orthogonalLoop=1;jettySize=auto;html=1;entryX=0;entryY=0.5;entryDx=0;entryDy=0;endArrow=none;endFill=0;exitX=0.938;exitY=0.416;exitDx=0;exitDy=0;exitPerimeter=0;" parent="1" source="nexvjyRkqYPtrZpTf3Uk-8" target="B4FTuvSRuAMlY6wqXQve-10" edge="1">
          <mxGeometry relative="1" as="geometry">
            <mxPoint x="1075" y="-410" as="sourcePoint" />
            <mxPoint x="1165" y="-500" as="targetPoint" />
          </mxGeometry>
        </mxCell>
        <mxCell id="jPhQAOdgmPTJR-V8zWTI-38" style="rounded=0;orthogonalLoop=1;jettySize=auto;html=1;exitX=0.25;exitY=1;exitDx=0;exitDy=0;entryX=0.5;entryY=0;entryDx=0;entryDy=0;endArrow=none;endFill=0;" parent="1" source="_BEPI9c5hfQ9F48i55fc-95" target="jPhQAOdgmPTJR-V8zWTI-35" edge="1">
          <mxGeometry relative="1" as="geometry" />
        </mxCell>
        <mxCell id="_BEPI9c5hfQ9F48i55fc-95" value="" style="rounded=0;whiteSpace=wrap;html=1;" parent="1" vertex="1">
          <mxGeometry x="710" y="-390" width="140" height="80" as="geometry" />
        </mxCell>
        <mxCell id="_BEPI9c5hfQ9F48i55fc-100" style="edgeStyle=none;rounded=0;orthogonalLoop=1;jettySize=auto;html=1;entryX=0.083;entryY=0.589;entryDx=0;entryDy=0;endArrow=none;endFill=0;exitX=1;exitY=0.25;exitDx=0;exitDy=0;entryPerimeter=0;" parent="1" source="_BEPI9c5hfQ9F48i55fc-95" target="nexvjyRkqYPtrZpTf3Uk-8" edge="1">
          <mxGeometry relative="1" as="geometry">
            <mxPoint x="995" y="-410" as="targetPoint" />
          </mxGeometry>
        </mxCell>
        <mxCell id="_BEPI9c5hfQ9F48i55fc-96" value="Disco" style="rounded=0;whiteSpace=wrap;html=1;" parent="1" vertex="1">
          <mxGeometry x="720" y="-380" width="120" height="60" as="geometry" />
        </mxCell>
        <mxCell id="G5Km5KM9y0l9eOGYp1cR-8" style="rounded=0;orthogonalLoop=1;jettySize=auto;html=1;endArrow=none;endFill=0;entryX=0;entryY=0.5;entryDx=0;entryDy=0;exitX=1;exitY=0.5;exitDx=0;exitDy=0;" parent="1" source="G5Km5KM9y0l9eOGYp1cR-20" target="hIdb89uVxdYaDY5rnDA6-15" edge="1">
          <mxGeometry relative="1" as="geometry">
            <mxPoint x="1267.5" y="189.78260869565224" as="sourcePoint" />
            <mxPoint x="1322.5" y="185" as="targetPoint" />
          </mxGeometry>
        </mxCell>
        <mxCell id="G5Km5KM9y0l9eOGYp1cR-10" style="rounded=0;orthogonalLoop=1;jettySize=auto;html=1;entryX=1;entryY=0.5;entryDx=0;entryDy=0;endArrow=none;endFill=0;" parent="1" source="G5Km5KM9y0l9eOGYp1cR-2" target="hIdb89uVxdYaDY5rnDA6-15" edge="1">
          <mxGeometry relative="1" as="geometry">
            <mxPoint x="1422.5" y="185" as="targetPoint" />
          </mxGeometry>
        </mxCell>
        <mxCell id="G5Km5KM9y0l9eOGYp1cR-2" value="Artista singolo" style="rounded=0;whiteSpace=wrap;html=1;" parent="1" vertex="1">
          <mxGeometry x="1472.5" y="90" width="120" height="60" as="geometry" />
        </mxCell>
        <mxCell id="G5Km5KM9y0l9eOGYp1cR-15" style="rounded=0;orthogonalLoop=1;jettySize=auto;html=1;entryX=0.5;entryY=1;entryDx=0;entryDy=0;endArrow=none;endFill=0;" parent="1" source="G5Km5KM9y0l9eOGYp1cR-12" target="B4FTuvSRuAMlY6wqXQve-10" edge="1">
          <mxGeometry relative="1" as="geometry">
            <mxPoint x="1255" y="-470" as="targetPoint" />
          </mxGeometry>
        </mxCell>
        <mxCell id="G5Km5KM9y0l9eOGYp1cR-16" style="rounded=0;orthogonalLoop=1;jettySize=auto;html=1;entryX=0.436;entryY=-0.033;entryDx=0;entryDy=0;endArrow=none;endFill=0;entryPerimeter=0;" parent="1" source="G5Km5KM9y0l9eOGYp1cR-12" target="_BEPI9c5hfQ9F48i55fc-73" edge="1">
          <mxGeometry relative="1" as="geometry" />
        </mxCell>
        <mxCell id="nexvjyRkqYPtrZpTf3Uk-6" style="rounded=0;orthogonalLoop=1;jettySize=auto;html=1;endArrow=none;endFill=0;" parent="1" source="G5Km5KM9y0l9eOGYp1cR-12" target="nexvjyRkqYPtrZpTf3Uk-3" edge="1">
          <mxGeometry relative="1" as="geometry" />
        </mxCell>
        <mxCell id="G5Km5KM9y0l9eOGYp1cR-12" value="Produce" style="rhombus;whiteSpace=wrap;html=1;" parent="1" vertex="1">
          <mxGeometry x="1195" y="-370" width="80" height="80" as="geometry" />
        </mxCell>
        <mxCell id="hIdb89uVxdYaDY5rnDA6-24" style="rounded=0;orthogonalLoop=1;jettySize=auto;html=1;entryX=0;entryY=0.5;entryDx=0;entryDy=0;endArrow=none;endFill=0;" parent="1" source="G5Km5KM9y0l9eOGYp1cR-20" target="hIdb89uVxdYaDY5rnDA6-22" edge="1">
          <mxGeometry relative="1" as="geometry" />
        </mxCell>
        <mxCell id="G5Km5KM9y0l9eOGYp1cR-20" value="" style="rounded=0;whiteSpace=wrap;html=1;" parent="1" vertex="1">
          <mxGeometry x="1127.5" y="135" width="140" height="80" as="geometry" />
        </mxCell>
        <mxCell id="G5Km5KM9y0l9eOGYp1cR-21" value="Band" style="rounded=0;whiteSpace=wrap;html=1;" parent="1" vertex="1">
          <mxGeometry x="1137.5" y="145" width="120" height="60" as="geometry" />
        </mxCell>
        <mxCell id="G5Km5KM9y0l9eOGYp1cR-31" style="rounded=0;orthogonalLoop=1;jettySize=auto;html=1;entryX=0;entryY=0.5;entryDx=0;entryDy=0;exitX=1;exitY=0.5;exitDx=0;exitDy=0;endArrow=none;endFill=0;" parent="1" source="G5Km5KM9y0l9eOGYp1cR-34" target="B4FTuvSRuAMlY6wqXQve-3" edge="1">
          <mxGeometry relative="1" as="geometry">
            <mxPoint x="450" y="-473.25" as="sourcePoint" />
            <mxPoint x="500" y="-403.25" as="targetPoint" />
          </mxGeometry>
        </mxCell>
        <mxCell id="G5Km5KM9y0l9eOGYp1cR-26" style="rounded=0;orthogonalLoop=1;jettySize=auto;html=1;entryX=0;entryY=0.5;entryDx=0;entryDy=0;endArrow=none;endFill=0;" parent="1" source="G5Km5KM9y0l9eOGYp1cR-25" target="G5Km5KM9y0l9eOGYp1cR-34" edge="1">
          <mxGeometry relative="1" as="geometry">
            <mxPoint x="310" y="-473.25" as="targetPoint" />
          </mxGeometry>
        </mxCell>
        <mxCell id="G5Km5KM9y0l9eOGYp1cR-25" value="Descrizione" style="ellipse;whiteSpace=wrap;html=1;fontStyle=0" parent="1" vertex="1">
          <mxGeometry x="160" y="-513.25" width="120" height="80" as="geometry" />
        </mxCell>
        <mxCell id="G5Km5KM9y0l9eOGYp1cR-32" style="rounded=0;orthogonalLoop=1;jettySize=auto;html=1;entryX=0;entryY=0.5;entryDx=0;entryDy=0;endArrow=none;endFill=0;exitX=1;exitY=0.5;exitDx=0;exitDy=0;" parent="1" source="B4FTuvSRuAMlY6wqXQve-3" target="_BEPI9c5hfQ9F48i55fc-95" edge="1">
          <mxGeometry relative="1" as="geometry">
            <mxPoint x="606.875" y="-356.875" as="sourcePoint" />
          </mxGeometry>
        </mxCell>
        <mxCell id="G5Km5KM9y0l9eOGYp1cR-34" value="Immagine" style="rounded=0;whiteSpace=wrap;html=1;" parent="1" vertex="1">
          <mxGeometry x="320" y="-503.25" width="120" height="60" as="geometry" />
        </mxCell>
        <mxCell id="G5Km5KM9y0l9eOGYp1cR-39" style="rounded=0;orthogonalLoop=1;jettySize=auto;html=1;entryX=0.25;entryY=1;entryDx=0;entryDy=0;endArrow=none;endFill=0;" parent="1" source="G5Km5KM9y0l9eOGYp1cR-37" target="_BEPI9c5hfQ9F48i55fc-17" edge="1">
          <mxGeometry relative="1" as="geometry">
            <Array as="points">
              <mxPoint x="735" y="190.43" />
            </Array>
          </mxGeometry>
        </mxCell>
        <mxCell id="G5Km5KM9y0l9eOGYp1cR-37" value="Condivisa" style="rhombus;whiteSpace=wrap;html=1;" parent="1" vertex="1">
          <mxGeometry x="515" y="150.43" width="80" height="80" as="geometry" />
        </mxCell>
        <mxCell id="G5Km5KM9y0l9eOGYp1cR-40" value="VisibilitÃ " style="ellipse;whiteSpace=wrap;html=1;fontStyle=0" parent="1" vertex="1">
          <mxGeometry x="905" y="150.43" width="120" height="80" as="geometry" />
        </mxCell>
        <mxCell id="G5Km5KM9y0l9eOGYp1cR-51" style="rounded=0;orthogonalLoop=1;jettySize=auto;html=1;entryX=0.5;entryY=0;entryDx=0;entryDy=0;endArrow=none;endFill=0;" parent="1" source="G5Km5KM9y0l9eOGYp1cR-49" target="hIdb89uVxdYaDY5rnDA6-9" edge="1">
          <mxGeometry relative="1" as="geometry">
            <mxPoint x="1015" y="-720" as="targetPoint" />
          </mxGeometry>
        </mxCell>
        <mxCell id="G5Km5KM9y0l9eOGYp1cR-49" value="Etichetta" style="rounded=0;whiteSpace=wrap;html=1;" parent="1" vertex="1">
          <mxGeometry x="1090" y="-900" width="120" height="60" as="geometry" />
        </mxCell>
        <mxCell id="G5Km5KM9y0l9eOGYp1cR-52" style="rounded=0;orthogonalLoop=1;jettySize=auto;html=1;entryX=0.75;entryY=0;entryDx=0;entryDy=0;endArrow=none;endFill=0;exitX=0.5;exitY=1;exitDx=0;exitDy=0;" parent="1" source="hIdb89uVxdYaDY5rnDA6-9" target="_BEPI9c5hfQ9F48i55fc-95" edge="1">
          <mxGeometry relative="1" as="geometry">
            <mxPoint x="1015" y="-640" as="sourcePoint" />
            <mxPoint x="1420" y="-960" as="targetPoint" />
          </mxGeometry>
        </mxCell>
        <mxCell id="G5Km5KM9y0l9eOGYp1cR-55" style="rounded=0;orthogonalLoop=1;jettySize=auto;html=1;entryX=0;entryY=0.25;entryDx=0;entryDy=0;endArrow=none;endFill=0;" parent="1" source="G5Km5KM9y0l9eOGYp1cR-53" target="G5Km5KM9y0l9eOGYp1cR-49" edge="1">
          <mxGeometry relative="1" as="geometry" />
        </mxCell>
        <mxCell id="G5Km5KM9y0l9eOGYp1cR-53" value="Nome" style="ellipse;whiteSpace=wrap;html=1;fontStyle=0" parent="1" vertex="1">
          <mxGeometry x="885" y="-930" width="120" height="80" as="geometry" />
        </mxCell>
        <mxCell id="G5Km5KM9y0l9eOGYp1cR-57" style="rounded=0;orthogonalLoop=1;jettySize=auto;html=1;entryX=0;entryY=0.75;entryDx=0;entryDy=0;endArrow=none;endFill=0;" parent="1" source="G5Km5KM9y0l9eOGYp1cR-56" target="G5Km5KM9y0l9eOGYp1cR-49" edge="1">
          <mxGeometry relative="1" as="geometry" />
        </mxCell>
        <mxCell id="G5Km5KM9y0l9eOGYp1cR-56" value="Partita IVA" style="ellipse;whiteSpace=wrap;html=1;fontStyle=4" parent="1" vertex="1">
          <mxGeometry x="885" y="-842" width="120" height="80" as="geometry" />
        </mxCell>
        <mxCell id="G5Km5KM9y0l9eOGYp1cR-60" style="rounded=0;orthogonalLoop=1;jettySize=auto;html=1;entryX=0.5;entryY=1;entryDx=0;entryDy=0;endArrow=none;endFill=0;" parent="1" source="G5Km5KM9y0l9eOGYp1cR-58" target="G5Km5KM9y0l9eOGYp1cR-20" edge="1">
          <mxGeometry relative="1" as="geometry" />
        </mxCell>
        <mxCell id="G5Km5KM9y0l9eOGYp1cR-58" value="Data di fondazione" style="ellipse;whiteSpace=wrap;html=1;fontStyle=4" parent="1" vertex="1">
          <mxGeometry x="1092.5" y="250" width="120" height="80" as="geometry" />
        </mxCell>
        <mxCell id="B4FTuvSRuAMlY6wqXQve-3" value="associato" style="rhombus;whiteSpace=wrap;html=1;" parent="1" vertex="1">
          <mxGeometry x="520" y="-453.25" width="80" height="80" as="geometry" />
        </mxCell>
        <mxCell id="B4FTuvSRuAMlY6wqXQve-6" style="rounded=0;orthogonalLoop=1;jettySize=auto;html=1;entryX=0.25;entryY=0;entryDx=0;entryDy=0;endArrow=none;endFill=0;" parent="1" source="B4FTuvSRuAMlY6wqXQve-5" target="G5Km5KM9y0l9eOGYp1cR-34" edge="1">
          <mxGeometry relative="1" as="geometry" />
        </mxCell>
        <mxCell id="B4FTuvSRuAMlY6wqXQve-5" value="file" style="ellipse;whiteSpace=wrap;html=1;fontStyle=4" parent="1" vertex="1">
          <mxGeometry x="160" y="-613.25" width="120" height="80" as="geometry" />
        </mxCell>
        <mxCell id="B4FTuvSRuAMlY6wqXQve-10" value="" style="rounded=0;whiteSpace=wrap;html=1;" parent="1" vertex="1">
          <mxGeometry x="1170" y="-520" width="140" height="80" as="geometry" />
        </mxCell>
        <mxCell id="B4FTuvSRuAMlY6wqXQve-11" value="Traccia" style="rounded=0;whiteSpace=wrap;html=1;" parent="1" vertex="1">
          <mxGeometry x="1180" y="-510" width="120" height="60" as="geometry" />
        </mxCell>
        <mxCell id="B4FTuvSRuAMlY6wqXQve-13" value="Nome d&#39;arte" style="ellipse;whiteSpace=wrap;html=1;fontStyle=4" parent="1" vertex="1">
          <mxGeometry x="1387.5" y="-243.38" width="92.5" height="66.75" as="geometry" />
        </mxCell>
        <mxCell id="B4FTuvSRuAMlY6wqXQve-18" value="(0,n)" style="text;html=1;align=center;verticalAlign=middle;resizable=0;points=[];autosize=1;strokeColor=none;fillColor=none;" parent="1" vertex="1">
          <mxGeometry x="1060" y="-840" width="50" height="30" as="geometry" />
        </mxCell>
        <mxCell id="B4FTuvSRuAMlY6wqXQve-20" value="(1,1)" style="text;html=1;align=center;verticalAlign=middle;resizable=0;points=[];autosize=1;strokeColor=none;fillColor=none;" parent="1" vertex="1">
          <mxGeometry x="782.5" y="-412" width="50" height="30" as="geometry" />
        </mxCell>
        <mxCell id="B4FTuvSRuAMlY6wqXQve-22" value="(1,n)" style="text;html=1;align=center;verticalAlign=middle;resizable=0;points=[];autosize=1;strokeColor=none;fillColor=none;" parent="1" vertex="1">
          <mxGeometry x="662.5" y="-360" width="50" height="30" as="geometry" />
        </mxCell>
        <mxCell id="B4FTuvSRuAMlY6wqXQve-23" value="(1,n)" style="text;html=1;align=center;verticalAlign=middle;resizable=0;points=[];autosize=1;strokeColor=none;fillColor=none;" parent="1" vertex="1">
          <mxGeometry x="855" y="-412" width="50" height="30" as="geometry" />
        </mxCell>
        <mxCell id="B4FTuvSRuAMlY6wqXQve-24" value="(1,1)" style="text;html=1;align=center;verticalAlign=middle;resizable=0;points=[];autosize=1;strokeColor=none;fillColor=none;" parent="1" vertex="1">
          <mxGeometry x="1115" y="-502" width="50" height="30" as="geometry" />
        </mxCell>
        <mxCell id="B4FTuvSRuAMlY6wqXQve-25" value="(1,n)" style="text;html=1;align=center;verticalAlign=middle;resizable=0;points=[];autosize=1;strokeColor=none;fillColor=none;" parent="1" vertex="1">
          <mxGeometry x="850" y="-325" width="50" height="30" as="geometry" />
        </mxCell>
        <mxCell id="B4FTuvSRuAMlY6wqXQve-26" value="(0,n)" style="text;html=1;align=center;verticalAlign=middle;resizable=0;points=[];autosize=1;strokeColor=none;fillColor=none;" parent="1" vertex="1">
          <mxGeometry x="1145" y="-172" width="50" height="30" as="geometry" />
        </mxCell>
        <mxCell id="B4FTuvSRuAMlY6wqXQve-29" value="(1,n)" style="text;html=1;align=center;verticalAlign=middle;resizable=0;points=[];autosize=1;strokeColor=none;fillColor=none;" parent="1" vertex="1">
          <mxGeometry x="1240" y="-443.25" width="50" height="30" as="geometry" />
        </mxCell>
        <mxCell id="B4FTuvSRuAMlY6wqXQve-32" value="(0,n)" style="text;html=1;align=center;verticalAlign=middle;resizable=0;points=[];autosize=1;strokeColor=none;fillColor=none;" parent="1" vertex="1">
          <mxGeometry x="1240" y="-225.01" width="50" height="30" as="geometry" />
        </mxCell>
        <mxCell id="B4FTuvSRuAMlY6wqXQve-33" value="(1,n)" style="text;html=1;align=center;verticalAlign=middle;resizable=0;points=[];autosize=1;strokeColor=none;fillColor=none;" parent="1" vertex="1">
          <mxGeometry x="1257.5" y="205" width="50" height="30" as="geometry" />
        </mxCell>
        <mxCell id="B4FTuvSRuAMlY6wqXQve-34" value="(0,n)" style="text;html=1;align=center;verticalAlign=middle;resizable=0;points=[];autosize=1;strokeColor=none;fillColor=none;" parent="1" vertex="1">
          <mxGeometry x="1442.5" y="150" width="50" height="30" as="geometry" />
        </mxCell>
        <mxCell id="B4FTuvSRuAMlY6wqXQve-45" value="(0,n)" style="text;html=1;align=center;verticalAlign=middle;resizable=0;points=[];autosize=1;strokeColor=none;fillColor=none;" parent="1" vertex="1">
          <mxGeometry x="690" y="160.43" width="50" height="30" as="geometry" />
        </mxCell>
        <mxCell id="B4FTuvSRuAMlY6wqXQve-46" value="(0,n)" style="text;html=1;align=center;verticalAlign=middle;resizable=0;points=[];autosize=1;strokeColor=none;fillColor=none;" parent="1" vertex="1">
          <mxGeometry x="385" y="160.43" width="50" height="30" as="geometry" />
        </mxCell>
        <mxCell id="mxVdU6yeqM1i-LsGYegs-34" style="rounded=0;orthogonalLoop=1;jettySize=auto;html=1;entryX=0;entryY=0.5;entryDx=0;entryDy=0;endArrow=none;endFill=0;exitX=1;exitY=0.25;exitDx=0;exitDy=0;" parent="1" source="DGZUFNvwby6rKhb85gpt-1" target="xgO8xsjQDgBM6cpIgwpF-12" edge="1">
          <mxGeometry relative="1" as="geometry">
            <mxPoint x="370" y="-390" as="targetPoint" />
            <mxPoint x="361.7226302085412" y="-389.1253046462068" as="sourcePoint" />
          </mxGeometry>
        </mxCell>
        <mxCell id="mxVdU6yeqM1i-LsGYegs-36" style="edgeStyle=none;rounded=0;orthogonalLoop=1;jettySize=auto;html=1;entryX=1;entryY=0.5;entryDx=0;entryDy=0;endArrow=none;endFill=0;exitX=0;exitY=0.5;exitDx=0;exitDy=0;" parent="1" source="B4FTuvSRuAMlY6wqXQve-13" target="_BEPI9c5hfQ9F48i55fc-73" edge="1">
          <mxGeometry relative="1" as="geometry">
            <mxPoint x="1445" y="-250" as="targetPoint" />
            <mxPoint x="1450" y="-170" as="sourcePoint" />
          </mxGeometry>
        </mxCell>
        <mxCell id="mxVdU6yeqM1i-LsGYegs-41" value="Durata" style="ellipse;whiteSpace=wrap;html=1;fontStyle=0;dashed=1;" parent="1" vertex="1">
          <mxGeometry x="915" y="-375" width="90" height="50" as="geometry" />
        </mxCell>
        <mxCell id="mxVdU6yeqM1i-LsGYegs-42" style="edgeStyle=none;rounded=0;orthogonalLoop=1;jettySize=auto;html=1;entryX=0;entryY=0.5;entryDx=0;entryDy=0;endArrow=none;endFill=0;exitX=1;exitY=0.75;exitDx=0;exitDy=0;" parent="1" source="_BEPI9c5hfQ9F48i55fc-95" target="mxVdU6yeqM1i-LsGYegs-41" edge="1">
          <mxGeometry relative="1" as="geometry">
            <mxPoint x="980" y="-387" as="targetPoint" />
            <mxPoint x="860" y="-347" as="sourcePoint" />
          </mxGeometry>
        </mxCell>
        <mxCell id="mxVdU6yeqM1i-LsGYegs-44" value="condivide" style="text;html=1;align=center;verticalAlign=middle;resizable=0;points=[];autosize=1;strokeColor=none;fillColor=none;" parent="1" vertex="1">
          <mxGeometry x="370" y="190.43" width="70" height="30" as="geometry" />
        </mxCell>
        <mxCell id="mxVdU6yeqM1i-LsGYegs-46" value="condivisa" style="text;html=1;align=center;verticalAlign=middle;resizable=0;points=[];autosize=1;strokeColor=none;fillColor=none;" parent="1" vertex="1">
          <mxGeometry x="672.5" y="190.43" width="70" height="30" as="geometry" />
        </mxCell>
        <mxCell id="jPhQAOdgmPTJR-V8zWTI-10" style="rounded=0;orthogonalLoop=1;jettySize=auto;html=1;exitX=0;exitY=0.75;exitDx=0;exitDy=0;entryX=1;entryY=0.5;entryDx=0;entryDy=0;endArrow=none;endFill=0;" parent="1" source="jPhQAOdgmPTJR-V8zWTI-30" target="jPhQAOdgmPTJR-V8zWTI-9" edge="1">
          <mxGeometry relative="1" as="geometry">
            <mxPoint x="779.9999999999998" y="-170" as="sourcePoint" />
          </mxGeometry>
        </mxCell>
        <mxCell id="mvCyFmwDbxFd1LSHAD4m-16" style="rounded=0;orthogonalLoop=1;jettySize=auto;html=1;exitX=0.5;exitY=1;exitDx=0;exitDy=0;entryX=0.5;entryY=0;entryDx=0;entryDy=0;endArrow=none;endFill=0;strokeColor=default;" parent="1" source="jPhQAOdgmPTJR-V8zWTI-11" target="_BEPI9c5hfQ9F48i55fc-17" edge="1">
          <mxGeometry relative="1" as="geometry">
            <mxPoint x="817.5" y="-48.43999999999989" as="sourcePoint" />
            <mxPoint x="835" y="121.43" as="targetPoint" />
          </mxGeometry>
        </mxCell>
        <mxCell id="mvCyFmwDbxFd1LSHAD4m-19" value="(1,n)" style="text;html=1;align=center;verticalAlign=middle;resizable=0;points=[];autosize=1;strokeColor=none;fillColor=none;" parent="1" vertex="1">
          <mxGeometry x="775" y="10" width="50" height="30" as="geometry" />
        </mxCell>
        <mxCell id="mvCyFmwDbxFd1LSHAD4m-21" value="(1,1)" style="text;html=1;align=center;verticalAlign=middle;resizable=0;points=[];autosize=1;strokeColor=none;fillColor=none;" parent="1" vertex="1">
          <mxGeometry x="765" y="-312" width="50" height="30" as="geometry" />
        </mxCell>
        <mxCell id="mvCyFmwDbxFd1LSHAD4m-24" style="rounded=0;orthogonalLoop=1;jettySize=auto;html=1;entryX=0.406;entryY=0.998;entryDx=0;entryDy=0;entryPerimeter=0;endArrow=none;endFill=0;exitX=0.5;exitY=0;exitDx=0;exitDy=0;" parent="1" source="jPhQAOdgmPTJR-V8zWTI-11" target="_BEPI9c5hfQ9F48i55fc-95" edge="1">
          <mxGeometry relative="1" as="geometry">
            <mxPoint x="799.9999999999998" y="-230" as="sourcePoint" />
          </mxGeometry>
        </mxCell>
        <mxCell id="mvCyFmwDbxFd1LSHAD4m-27" value="" style="rhombus;whiteSpace=wrap;html=1;" parent="1" vertex="1">
          <mxGeometry x="515" y="36.43" width="80" height="80" as="geometry" />
        </mxCell>
        <mxCell id="mvCyFmwDbxFd1LSHAD4m-28" value="(1,1)" style="text;html=1;align=center;verticalAlign=middle;resizable=0;points=[];autosize=1;strokeColor=none;fillColor=none;" parent="1" vertex="1">
          <mxGeometry x="660" y="50.43" width="50" height="30" as="geometry" />
        </mxCell>
        <mxCell id="mvCyFmwDbxFd1LSHAD4m-29" value="(0,n)" style="text;html=1;align=center;verticalAlign=middle;resizable=0;points=[];autosize=1;strokeColor=none;fillColor=none;" parent="1" vertex="1">
          <mxGeometry x="440" y="50.43" width="50" height="30" as="geometry" />
        </mxCell>
        <mxCell id="mvCyFmwDbxFd1LSHAD4m-33" style="rounded=0;orthogonalLoop=1;jettySize=auto;html=1;entryX=0;entryY=0.5;entryDx=0;entryDy=0;endArrow=none;endFill=0;exitX=1;exitY=0.5;exitDx=0;exitDy=0;" parent="1" source="mvCyFmwDbxFd1LSHAD4m-27" target="_BEPI9c5hfQ9F48i55fc-17" edge="1">
          <mxGeometry relative="1" as="geometry">
            <mxPoint x="455" y="85.43" as="sourcePoint" />
            <mxPoint x="525" y="84.43" as="targetPoint" />
          </mxGeometry>
        </mxCell>
        <mxCell id="mvCyFmwDbxFd1LSHAD4m-35" value="Ha" style="rhombus;whiteSpace=wrap;html=1;" parent="1" vertex="1">
          <mxGeometry x="527.5" y="50.43" width="55" height="54" as="geometry" />
        </mxCell>
        <mxCell id="hIdb89uVxdYaDY5rnDA6-3" style="rounded=0;orthogonalLoop=1;jettySize=auto;html=1;entryX=0.5;entryY=1;entryDx=0;entryDy=0;endArrow=none;endFill=0;exitX=0.5;exitY=0;exitDx=0;exitDy=0;" parent="1" source="hIdb89uVxdYaDY5rnDA6-7" target="G5Km5KM9y0l9eOGYp1cR-49" edge="1">
          <mxGeometry relative="1" as="geometry">
            <mxPoint x="1186.219512195122" y="-711.219512195122" as="sourcePoint" />
          </mxGeometry>
        </mxCell>
        <mxCell id="hIdb89uVxdYaDY5rnDA6-4" style="rounded=0;orthogonalLoop=1;jettySize=auto;html=1;entryX=0.5;entryY=1;entryDx=0;entryDy=0;endArrow=none;endFill=0;exitX=0.25;exitY=0;exitDx=0;exitDy=0;" parent="1" source="B4FTuvSRuAMlY6wqXQve-10" target="hIdb89uVxdYaDY5rnDA6-7" edge="1">
          <mxGeometry relative="1" as="geometry">
            <mxPoint x="1196" y="-701" as="sourcePoint" />
            <mxPoint x="1195" y="-640" as="targetPoint" />
          </mxGeometry>
        </mxCell>
        <mxCell id="hIdb89uVxdYaDY5rnDA6-5" value="(1,1)" style="text;html=1;align=center;verticalAlign=middle;resizable=0;points=[];autosize=1;strokeColor=none;fillColor=none;" parent="1" vertex="1">
          <mxGeometry x="1195" y="-550" width="50" height="30" as="geometry" />
        </mxCell>
        <mxCell id="hIdb89uVxdYaDY5rnDA6-6" value="(0,n)" style="text;html=1;align=center;verticalAlign=middle;resizable=0;points=[];autosize=1;strokeColor=none;fillColor=none;" parent="1" vertex="1">
          <mxGeometry x="1160" y="-842" width="50" height="30" as="geometry" />
        </mxCell>
        <mxCell id="hIdb89uVxdYaDY5rnDA6-7" value="" style="rhombus;whiteSpace=wrap;html=1;" parent="1" vertex="1">
          <mxGeometry x="1150" y="-740" width="100" height="100" as="geometry" />
        </mxCell>
        <mxCell id="hIdb89uVxdYaDY5rnDA6-8" value="Rilascia" style="rhombus;whiteSpace=wrap;html=1;" parent="1" vertex="1">
          <mxGeometry x="1160" y="-730" width="80" height="80" as="geometry" />
        </mxCell>
        <mxCell id="hIdb89uVxdYaDY5rnDA6-9" value="" style="rhombus;whiteSpace=wrap;html=1;" parent="1" vertex="1">
          <mxGeometry x="935" y="-700" width="100" height="100" as="geometry" />
        </mxCell>
        <mxCell id="hIdb89uVxdYaDY5rnDA6-10" value="Pubblica" style="rhombus;whiteSpace=wrap;html=1;" parent="1" vertex="1">
          <mxGeometry x="945" y="-690" width="80" height="80" as="geometry" />
        </mxCell>
        <mxCell id="hIdb89uVxdYaDY5rnDA6-11" value="Incide" style="rhombus;whiteSpace=wrap;html=1;" parent="1" vertex="1">
          <mxGeometry x="955" y="-222" width="90" height="80" as="geometry" />
        </mxCell>
        <mxCell id="hIdb89uVxdYaDY5rnDA6-15" value="Costituito" style="rhombus;whiteSpace=wrap;html=1;" parent="1" vertex="1">
          <mxGeometry x="1322.5" y="205" width="90" height="80" as="geometry" />
        </mxCell>
        <mxCell id="hIdb89uVxdYaDY5rnDA6-25" style="rounded=0;orthogonalLoop=1;jettySize=auto;html=1;exitX=1;exitY=0.5;exitDx=0;exitDy=0;entryX=0;entryY=0.25;entryDx=0;entryDy=0;endArrow=none;endFill=0;" parent="1" source="hIdb89uVxdYaDY5rnDA6-22" target="G5Km5KM9y0l9eOGYp1cR-2" edge="1">
          <mxGeometry relative="1" as="geometry" />
        </mxCell>
        <mxCell id="hIdb89uVxdYaDY5rnDA6-22" value="" style="rhombus;whiteSpace=wrap;html=1;" parent="1" vertex="1">
          <mxGeometry x="1327.5" y="40" width="80" height="80" as="geometry" />
        </mxCell>
        <mxCell id="hIdb89uVxdYaDY5rnDA6-23" value="Fonda" style="rhombus;whiteSpace=wrap;html=1;" parent="1" vertex="1">
          <mxGeometry x="1340" y="54" width="55" height="54" as="geometry" />
        </mxCell>
        <mxCell id="hIdb89uVxdYaDY5rnDA6-26" value="(1,1)" style="text;html=1;align=center;verticalAlign=middle;resizable=0;points=[];autosize=1;strokeColor=none;fillColor=none;" parent="1" vertex="1">
          <mxGeometry x="1232.5" y="101" width="50" height="30" as="geometry" />
        </mxCell>
        <mxCell id="hIdb89uVxdYaDY5rnDA6-27" value="(0,n)" style="text;html=1;align=center;verticalAlign=middle;resizable=0;points=[];autosize=1;strokeColor=none;fillColor=none;" parent="1" vertex="1">
          <mxGeometry x="1432.5" y="96" width="50" height="30" as="geometry" />
        </mxCell>
        <mxCell id="hIdb89uVxdYaDY5rnDA6-28" value="Genere" style="rounded=0;whiteSpace=wrap;html=1;" parent="1" vertex="1">
          <mxGeometry x="490" y="-681" width="120" height="60" as="geometry" />
        </mxCell>
        <mxCell id="hIdb89uVxdYaDY5rnDA6-29" value="Nome" style="ellipse;whiteSpace=wrap;html=1;fontStyle=4" parent="1" vertex="1">
          <mxGeometry x="460" y="-807.5" width="120" height="80" as="geometry" />
        </mxCell>
        <mxCell id="hIdb89uVxdYaDY5rnDA6-30" style="edgeStyle=none;rounded=0;orthogonalLoop=1;jettySize=auto;html=1;entryX=0.25;entryY=0;entryDx=0;entryDy=0;endArrow=none;endFill=0;exitX=0.5;exitY=1;exitDx=0;exitDy=0;" parent="1" source="hIdb89uVxdYaDY5rnDA6-29" target="hIdb89uVxdYaDY5rnDA6-28" edge="1">
          <mxGeometry relative="1" as="geometry">
            <mxPoint x="443.5" y="-651.5" as="targetPoint" />
            <mxPoint x="387.5" y="-850.5" as="sourcePoint" />
          </mxGeometry>
        </mxCell>
        <mxCell id="hIdb89uVxdYaDY5rnDA6-31" value="Formato" style="rounded=0;whiteSpace=wrap;html=1;" parent="1" vertex="1">
          <mxGeometry x="665" y="-681" width="120" height="60" as="geometry" />
        </mxCell>
        <mxCell id="hIdb89uVxdYaDY5rnDA6-32" value="Nome" style="ellipse;whiteSpace=wrap;html=1;fontStyle=4" parent="1" vertex="1">
          <mxGeometry x="665" y="-807.5" width="120" height="80" as="geometry" />
        </mxCell>
        <mxCell id="hIdb89uVxdYaDY5rnDA6-33" style="edgeStyle=none;rounded=0;orthogonalLoop=1;jettySize=auto;html=1;entryX=0.5;entryY=0;entryDx=0;entryDy=0;endArrow=none;endFill=0;exitX=0.5;exitY=1;exitDx=0;exitDy=0;" parent="1" source="hIdb89uVxdYaDY5rnDA6-32" target="hIdb89uVxdYaDY5rnDA6-31" edge="1">
          <mxGeometry relative="1" as="geometry">
            <mxPoint x="596" y="-651.5" as="targetPoint" />
            <mxPoint x="540" y="-850.5" as="sourcePoint" />
          </mxGeometry>
        </mxCell>
        <mxCell id="hIdb89uVxdYaDY5rnDA6-34" value="" style="endArrow=none;html=1;rounded=0;entryX=0.5;entryY=0;entryDx=0;entryDy=0;exitX=0.467;exitY=1.015;exitDx=0;exitDy=0;exitPerimeter=0;" parent="1" source="hIdb89uVxdYaDY5rnDA6-31" target="hIdb89uVxdYaDY5rnDA6-64" edge="1">
          <mxGeometry width="50" height="50" relative="1" as="geometry">
            <mxPoint x="615" y="-533" as="sourcePoint" />
            <mxPoint x="722.5" y="-571" as="targetPoint" />
          </mxGeometry>
        </mxCell>
        <mxCell id="hIdb89uVxdYaDY5rnDA6-37" value="" style="endArrow=none;html=1;rounded=0;exitX=0.25;exitY=0;exitDx=0;exitDy=0;entryX=0.5;entryY=1;entryDx=0;entryDy=0;" parent="1" source="_BEPI9c5hfQ9F48i55fc-95" target="hIdb89uVxdYaDY5rnDA6-68" edge="1">
          <mxGeometry width="50" height="50" relative="1" as="geometry">
            <mxPoint x="690" y="-441" as="sourcePoint" />
            <mxPoint x="615" y="-460" as="targetPoint" />
          </mxGeometry>
        </mxCell>
        <mxCell id="hIdb89uVxdYaDY5rnDA6-38" value="" style="endArrow=none;html=1;rounded=0;entryX=0.452;entryY=1.017;entryDx=0;entryDy=0;entryPerimeter=0;exitX=0.5;exitY=0;exitDx=0;exitDy=0;" parent="1" source="hIdb89uVxdYaDY5rnDA6-68" target="hIdb89uVxdYaDY5rnDA6-28" edge="1">
          <mxGeometry width="50" height="50" relative="1" as="geometry">
            <mxPoint x="615" y="-560" as="sourcePoint" />
            <mxPoint x="578" y="-605" as="targetPoint" />
          </mxGeometry>
        </mxCell>
        <mxCell id="hIdb89uVxdYaDY5rnDA6-39" value="" style="endArrow=none;html=1;rounded=0;exitX=0.5;exitY=0;exitDx=0;exitDy=0;entryX=0.5;entryY=1;entryDx=0;entryDy=0;" parent="1" source="_BEPI9c5hfQ9F48i55fc-95" target="hIdb89uVxdYaDY5rnDA6-64" edge="1">
          <mxGeometry width="50" height="50" relative="1" as="geometry">
            <mxPoint x="722" y="-440" as="sourcePoint" />
            <mxPoint x="722.5" y="-491" as="targetPoint" />
          </mxGeometry>
        </mxCell>
        <mxCell id="hIdb89uVxdYaDY5rnDA6-40" value="(0,n)" style="text;html=1;align=center;verticalAlign=middle;resizable=0;points=[];autosize=1;strokeColor=none;fillColor=none;" parent="1" vertex="1">
          <mxGeometry x="495" y="-621" width="50" height="30" as="geometry" />
        </mxCell>
        <mxCell id="hIdb89uVxdYaDY5rnDA6-41" value="(1,n)" style="text;html=1;align=center;verticalAlign=middle;resizable=0;points=[];autosize=1;strokeColor=none;fillColor=none;" parent="1" vertex="1">
          <mxGeometry x="680" y="-412" width="50" height="30" as="geometry" />
        </mxCell>
        <mxCell id="hIdb89uVxdYaDY5rnDA6-42" value="(0,n)" style="text;html=1;align=center;verticalAlign=middle;resizable=0;points=[];autosize=1;strokeColor=none;fillColor=none;" parent="1" vertex="1">
          <mxGeometry x="685" y="-621" width="50" height="30" as="geometry" />
        </mxCell>
        <mxCell id="hIdb89uVxdYaDY5rnDA6-43" value="(1,1)" style="text;html=1;align=center;verticalAlign=middle;resizable=0;points=[];autosize=1;strokeColor=none;fillColor=none;" parent="1" vertex="1">
          <mxGeometry x="735" y="-420" width="50" height="30" as="geometry" />
        </mxCell>
        <mxCell id="hIdb89uVxdYaDY5rnDA6-45" value="is_band" style="rhombus;whiteSpace=wrap;html=1;" parent="1" vertex="1">
          <mxGeometry x="1162.5" y="-78" width="80" height="80" as="geometry" />
        </mxCell>
        <mxCell id="hIdb89uVxdYaDY5rnDA6-46" style="rounded=0;orthogonalLoop=1;jettySize=auto;html=1;endArrow=none;endFill=0;entryX=0.5;entryY=0;entryDx=0;entryDy=0;exitX=0;exitY=1;exitDx=0;exitDy=0;" parent="1" source="hIdb89uVxdYaDY5rnDA6-45" target="G5Km5KM9y0l9eOGYp1cR-20" edge="1">
          <mxGeometry relative="1" as="geometry">
            <mxPoint x="1087.5" y="-3" as="sourcePoint" />
            <mxPoint x="1172.5" y="37" as="targetPoint" />
          </mxGeometry>
        </mxCell>
        <mxCell id="hIdb89uVxdYaDY5rnDA6-47" style="rounded=0;orthogonalLoop=1;jettySize=auto;html=1;endArrow=none;endFill=0;entryX=1;entryY=0;entryDx=0;entryDy=0;exitX=0.5;exitY=1;exitDx=0;exitDy=0;" parent="1" source="_BEPI9c5hfQ9F48i55fc-73" target="hIdb89uVxdYaDY5rnDA6-45" edge="1">
          <mxGeometry relative="1" as="geometry">
            <mxPoint x="1242.5" y="-118" as="sourcePoint" />
            <mxPoint x="1217.5" y="-63" as="targetPoint" />
          </mxGeometry>
        </mxCell>
        <mxCell id="hIdb89uVxdYaDY5rnDA6-48" value="is_singolo" style="rhombus;whiteSpace=wrap;html=1;" parent="1" vertex="1">
          <mxGeometry x="1322.5" y="-98" width="80" height="80" as="geometry" />
        </mxCell>
        <mxCell id="hIdb89uVxdYaDY5rnDA6-50" style="rounded=0;orthogonalLoop=1;jettySize=auto;html=1;endArrow=none;endFill=0;entryX=0;entryY=0;entryDx=0;entryDy=0;exitX=0.75;exitY=1;exitDx=0;exitDy=0;" parent="1" source="_BEPI9c5hfQ9F48i55fc-73" target="hIdb89uVxdYaDY5rnDA6-48" edge="1">
          <mxGeometry relative="1" as="geometry">
            <mxPoint x="1302.5" y="-118" as="sourcePoint" />
            <mxPoint x="1377.5" y="-68" as="targetPoint" />
          </mxGeometry>
        </mxCell>
        <mxCell id="hIdb89uVxdYaDY5rnDA6-51" value="(1,1)" style="text;html=1;align=center;verticalAlign=middle;resizable=0;points=[];autosize=1;strokeColor=none;fillColor=none;" parent="1" vertex="1">
          <mxGeometry x="1150" y="104" width="50" height="30" as="geometry" />
        </mxCell>
        <mxCell id="hIdb89uVxdYaDY5rnDA6-52" value="(0,1)" style="text;html=1;align=center;verticalAlign=middle;resizable=0;points=[];autosize=1;strokeColor=none;fillColor=none;" parent="1" vertex="1">
          <mxGeometry x="1192.5" y="-120" width="50" height="30" as="geometry" />
        </mxCell>
        <mxCell id="hIdb89uVxdYaDY5rnDA6-53" value="(0,1)" style="text;html=1;align=center;verticalAlign=middle;resizable=0;points=[];autosize=1;strokeColor=none;fillColor=none;" parent="1" vertex="1">
          <mxGeometry x="1312.5" y="-120" width="50" height="30" as="geometry" />
        </mxCell>
        <mxCell id="hIdb89uVxdYaDY5rnDA6-54" style="rounded=0;orthogonalLoop=1;jettySize=auto;html=1;endArrow=none;endFill=0;entryX=0.25;entryY=0;entryDx=0;entryDy=0;exitX=1;exitY=1;exitDx=0;exitDy=0;" parent="1" source="hIdb89uVxdYaDY5rnDA6-48" target="G5Km5KM9y0l9eOGYp1cR-2" edge="1">
          <mxGeometry relative="1" as="geometry">
            <mxPoint x="1436" y="-36" as="sourcePoint" />
            <mxPoint x="1499" y="26" as="targetPoint" />
          </mxGeometry>
        </mxCell>
        <mxCell id="hIdb89uVxdYaDY5rnDA6-55" value="(1,1)" style="text;html=1;align=center;verticalAlign=middle;resizable=0;points=[];autosize=1;strokeColor=none;fillColor=none;" parent="1" vertex="1">
          <mxGeometry x="1487.5" y="60" width="50" height="30" as="geometry" />
        </mxCell>
        <mxCell id="hIdb89uVxdYaDY5rnDA6-64" value="" style="rhombus;whiteSpace=wrap;html=1;" parent="1" vertex="1">
          <mxGeometry x="750" y="-570" width="100" height="100" as="geometry" />
        </mxCell>
        <mxCell id="hIdb89uVxdYaDY5rnDA6-65" value="Esiste" style="rhombus;whiteSpace=wrap;html=1;" parent="1" vertex="1">
          <mxGeometry x="760" y="-560" width="80" height="80" as="geometry" />
        </mxCell>
        <mxCell id="hIdb89uVxdYaDY5rnDA6-68" value="Classificazione" style="rhombus;whiteSpace=wrap;html=1;" parent="1" vertex="1">
          <mxGeometry x="555" y="-550" width="110" height="100" as="geometry" />
        </mxCell>
        <mxCell id="hIdb89uVxdYaDY5rnDA6-69" value="(1,1)" style="text;html=1;align=center;verticalAlign=middle;resizable=0;points=[];autosize=1;strokeColor=none;fillColor=none;" parent="1" vertex="1">
          <mxGeometry x="435" y="-493.25" width="50" height="30" as="geometry" />
        </mxCell>
        <mxCell id="DGZUFNvwby6rKhb85gpt-4" style="rounded=0;orthogonalLoop=1;jettySize=auto;html=1;entryX=1;entryY=0.5;entryDx=0;entryDy=0;endArrow=none;endFill=0;" parent="1" source="DGZUFNvwby6rKhb85gpt-1" target="DGZUFNvwby6rKhb85gpt-3" edge="1">
          <mxGeometry relative="1" as="geometry" />
        </mxCell>
        <mxCell id="DGZUFNvwby6rKhb85gpt-1" value="Tipologia" style="rounded=0;whiteSpace=wrap;html=1;" parent="1" vertex="1">
          <mxGeometry x="200" y="-355" width="95" height="40" as="geometry" />
        </mxCell>
        <mxCell id="DGZUFNvwby6rKhb85gpt-3" value="Nome" style="ellipse;whiteSpace=wrap;html=1;fontStyle=4" parent="1" vertex="1">
          <mxGeometry x="105" y="-361.75" width="65" height="53.5" as="geometry" />
        </mxCell>
        <mxCell id="DGZUFNvwby6rKhb85gpt-5" value="(0,n)" style="text;html=1;align=center;verticalAlign=middle;resizable=0;points=[];autosize=1;strokeColor=none;fillColor=none;" parent="1" vertex="1">
          <mxGeometry x="285" y="-370" width="50" height="30" as="geometry" />
        </mxCell>
        <mxCell id="gKsC5zCnz7dO-P2fgcb8-1" value="Tipo" style="ellipse;whiteSpace=wrap;html=1;fontStyle=0" parent="1" vertex="1">
          <mxGeometry x="1380" y="-160" width="62.5" height="50" as="geometry" />
        </mxCell>
        <mxCell id="gKsC5zCnz7dO-P2fgcb8-2" style="edgeStyle=none;rounded=0;orthogonalLoop=1;jettySize=auto;html=1;entryX=1;entryY=0.75;entryDx=0;entryDy=0;endArrow=none;endFill=0;exitX=0;exitY=0.5;exitDx=0;exitDy=0;" parent="1" source="gKsC5zCnz7dO-P2fgcb8-1" target="_BEPI9c5hfQ9F48i55fc-73" edge="1">
          <mxGeometry relative="1" as="geometry">
            <mxPoint x="1320" y="-160" as="targetPoint" />
            <mxPoint x="1390" y="-213" as="sourcePoint" />
          </mxGeometry>
        </mxCell>
        <mxCell id="wGq44TqjXEZBciOFI10Y-2" style="rounded=0;orthogonalLoop=1;jettySize=auto;html=1;entryX=0.25;entryY=1;entryDx=0;entryDy=0;endArrow=none;endFill=0;" parent="1" source="wGq44TqjXEZBciOFI10Y-1" target="jPhQAOdgmPTJR-V8zWTI-30" edge="1">
          <mxGeometry relative="1" as="geometry">
            <mxPoint x="760" y="-190" as="targetPoint" />
          </mxGeometry>
        </mxCell>
        <mxCell id="wGq44TqjXEZBciOFI10Y-1" value="Numero copie" style="ellipse;whiteSpace=wrap;html=1;fontStyle=0" parent="1" vertex="1">
          <mxGeometry x="415" y="-63" width="70" height="50" as="geometry" />
        </mxCell>
        <mxCell id="jPhQAOdgmPTJR-V8zWTI-9" value="Note" style="ellipse;whiteSpace=wrap;html=1;fontStyle=0" parent="1" vertex="1">
          <mxGeometry x="280" y="-120" width="70" height="50" as="geometry" />
        </mxCell>
        <mxCell id="jPhQAOdgmPTJR-V8zWTI-11" value="" style="rhombus;whiteSpace=wrap;html=1;" parent="1" vertex="1">
          <mxGeometry x="765" y="-140" width="100" height="100" as="geometry" />
        </mxCell>
        <mxCell id="jPhQAOdgmPTJR-V8zWTI-12" value="Appartiene" style="rhombus;whiteSpace=wrap;html=1;" parent="1" vertex="1">
          <mxGeometry x="775" y="-130" width="80" height="80" as="geometry" />
        </mxCell>
        <mxCell id="jPhQAOdgmPTJR-V8zWTI-30" value="" style="rounded=0;whiteSpace=wrap;html=1;" parent="1" vertex="1">
          <mxGeometry x="395" y="-182" width="140" height="80" as="geometry" />
        </mxCell>
        <mxCell id="jPhQAOdgmPTJR-V8zWTI-37" style="rounded=0;orthogonalLoop=1;jettySize=auto;html=1;entryX=0;entryY=0.5;entryDx=0;entryDy=0;exitX=1;exitY=0.5;exitDx=0;exitDy=0;endArrow=none;endFill=0;" parent="1" source="jPhQAOdgmPTJR-V8zWTI-30" target="jPhQAOdgmPTJR-V8zWTI-35" edge="1">
          <mxGeometry relative="1" as="geometry" />
        </mxCell>
        <mxCell id="jPhQAOdgmPTJR-V8zWTI-31" value="Info_Disco" style="rounded=0;whiteSpace=wrap;html=1;" parent="1" vertex="1">
          <mxGeometry x="405" y="-172" width="120" height="60" as="geometry" />
        </mxCell>
        <mxCell id="jPhQAOdgmPTJR-V8zWTI-35" value="" style="rhombus;whiteSpace=wrap;html=1;" parent="1" vertex="1">
          <mxGeometry x="610" y="-185" width="100" height="100" as="geometry" />
        </mxCell>
        <mxCell id="jPhQAOdgmPTJR-V8zWTI-36" value="Dettagli" style="rhombus;whiteSpace=wrap;html=1;" parent="1" vertex="1">
          <mxGeometry x="620" y="-175" width="80" height="80" as="geometry" />
        </mxCell>
        <mxCell id="jPhQAOdgmPTJR-V8zWTI-39" value="(1,1)" style="text;html=1;align=center;verticalAlign=middle;resizable=0;points=[];autosize=1;strokeColor=none;fillColor=none;" parent="1" vertex="1">
          <mxGeometry x="720" y="-310" width="50" height="30" as="geometry" />
        </mxCell>
        <mxCell id="jPhQAOdgmPTJR-V8zWTI-40" value="(1,1)" style="text;html=1;align=center;verticalAlign=middle;resizable=0;points=[];autosize=1;strokeColor=none;fillColor=none;" parent="1" vertex="1">
          <mxGeometry x="525" y="-142" width="50" height="30" as="geometry" />
        </mxCell>
        <mxCell id="nexvjyRkqYPtrZpTf3Uk-3" value="Ruolo" style="rounded=0;whiteSpace=wrap;html=1;" parent="1" vertex="1">
          <mxGeometry x="1380" y="-363.25" width="120" height="60" as="geometry" />
        </mxCell>
        <mxCell id="nexvjyRkqYPtrZpTf3Uk-4" value="Nome" style="ellipse;whiteSpace=wrap;html=1;fontStyle=4" parent="1" vertex="1">
          <mxGeometry x="1352.5" y="-492" width="120" height="80" as="geometry" />
        </mxCell>
        <mxCell id="nexvjyRkqYPtrZpTf3Uk-5" style="edgeStyle=none;rounded=0;orthogonalLoop=1;jettySize=auto;html=1;entryX=0.25;entryY=0;entryDx=0;entryDy=0;endArrow=none;endFill=0;exitX=0.5;exitY=1;exitDx=0;exitDy=0;" parent="1" source="nexvjyRkqYPtrZpTf3Uk-4" target="nexvjyRkqYPtrZpTf3Uk-3" edge="1">
          <mxGeometry relative="1" as="geometry">
            <mxPoint x="1342.25" y="-348.75" as="targetPoint" />
            <mxPoint x="1286.25" y="-547.75" as="sourcePoint" />
          </mxGeometry>
        </mxCell>
        <mxCell id="nexvjyRkqYPtrZpTf3Uk-7" value="(0,n)" style="text;html=1;align=center;verticalAlign=middle;resizable=0;points=[];autosize=1;strokeColor=none;fillColor=none;" parent="1" vertex="1">
          <mxGeometry x="1340" y="-355.25" width="50" height="30" as="geometry" />
        </mxCell>
        <mxCell id="nexvjyRkqYPtrZpTf3Uk-8" value="" style="rhombus;whiteSpace=wrap;html=1;" parent="1" vertex="1">
          <mxGeometry x="990" y="-463.25" width="100" height="100" as="geometry" />
        </mxCell>
        <mxCell id="nexvjyRkqYPtrZpTf3Uk-9" value="Raggruppa" style="rhombus;whiteSpace=wrap;html=1;" parent="1" vertex="1">
          <mxGeometry x="1000" y="-453.25" width="80" height="80" as="geometry" />
        </mxCell>
        <mxCell id="xgO8xsjQDgBM6cpIgwpF-1" value="(1,1)" style="text;html=1;align=center;verticalAlign=middle;resizable=0;points=[];autosize=1;strokeColor=none;fillColor=none;" parent="1" vertex="1">
          <mxGeometry x="815" y="-310" width="50" height="30" as="geometry" />
        </mxCell>
        <mxCell id="xgO8xsjQDgBM6cpIgwpF-2" value="Stato" style="rounded=0;whiteSpace=wrap;html=1;" parent="1" vertex="1">
          <mxGeometry x="905" y="-50" width="120" height="60" as="geometry" />
        </mxCell>
        <mxCell id="xgO8xsjQDgBM6cpIgwpF-3" value="Nome" style="ellipse;whiteSpace=wrap;html=1;fontStyle=4" parent="1" vertex="1">
          <mxGeometry x="990" y="30" width="120" height="80" as="geometry" />
        </mxCell>
        <mxCell id="xgO8xsjQDgBM6cpIgwpF-4" style="edgeStyle=none;rounded=0;orthogonalLoop=1;jettySize=auto;html=1;entryX=0.5;entryY=1;entryDx=0;entryDy=0;endArrow=none;endFill=0;exitX=0.5;exitY=0;exitDx=0;exitDy=0;" parent="1" source="xgO8xsjQDgBM6cpIgwpF-3" target="xgO8xsjQDgBM6cpIgwpF-2" edge="1">
          <mxGeometry relative="1" as="geometry">
            <mxPoint x="798.5" y="-213.75" as="targetPoint" />
            <mxPoint x="742.5" y="-412.75" as="sourcePoint" />
          </mxGeometry>
        </mxCell>
        <mxCell id="xgO8xsjQDgBM6cpIgwpF-5" value="" style="endArrow=none;html=1;rounded=0;entryX=0.5;entryY=1;entryDx=0;entryDy=0;exitX=0.5;exitY=0;exitDx=0;exitDy=0;" parent="1" source="xgO8xsjQDgBM6cpIgwpF-2" target="xgO8xsjQDgBM6cpIgwpF-8" edge="1">
          <mxGeometry width="50" height="50" relative="1" as="geometry">
            <mxPoint x="817.5" y="-95.25" as="sourcePoint" />
            <mxPoint x="925" y="-133.25" as="targetPoint" />
          </mxGeometry>
        </mxCell>
        <mxCell id="xgO8xsjQDgBM6cpIgwpF-6" value="" style="endArrow=none;html=1;rounded=0;exitX=0.75;exitY=1;exitDx=0;exitDy=0;entryX=0.5;entryY=0;entryDx=0;entryDy=0;" parent="1" source="_BEPI9c5hfQ9F48i55fc-95" target="xgO8xsjQDgBM6cpIgwpF-8" edge="1">
          <mxGeometry width="50" height="50" relative="1" as="geometry">
            <mxPoint x="982.5" y="47.75" as="sourcePoint" />
            <mxPoint x="925" y="-53.25" as="targetPoint" />
          </mxGeometry>
        </mxCell>
        <mxCell id="xgO8xsjQDgBM6cpIgwpF-7" value="(0,n)" style="text;html=1;align=center;verticalAlign=middle;resizable=0;points=[];autosize=1;strokeColor=none;fillColor=none;" parent="1" vertex="1">
          <mxGeometry x="955" y="-73" width="50" height="30" as="geometry" />
        </mxCell>
        <mxCell id="xgO8xsjQDgBM6cpIgwpF-8" value="" style="rhombus;whiteSpace=wrap;html=1;" parent="1" vertex="1">
          <mxGeometry x="855" y="-198" width="100" height="100" as="geometry" />
        </mxCell>
        <mxCell id="xgO8xsjQDgBM6cpIgwpF-9" value="Condizione" style="rhombus;whiteSpace=wrap;html=1;" parent="1" vertex="1">
          <mxGeometry x="865" y="-188" width="80" height="80" as="geometry" />
        </mxCell>
        <mxCell id="xgO8xsjQDgBM6cpIgwpF-13" style="rounded=0;orthogonalLoop=1;jettySize=auto;html=1;entryX=0.5;entryY=1;entryDx=0;entryDy=0;endArrow=none;endFill=0;" parent="1" source="xgO8xsjQDgBM6cpIgwpF-12" target="G5Km5KM9y0l9eOGYp1cR-34" edge="1">
          <mxGeometry relative="1" as="geometry" />
        </mxCell>
        <mxCell id="xgO8xsjQDgBM6cpIgwpF-12" value="Ã" style="rhombus;whiteSpace=wrap;html=1;" parent="1" vertex="1">
          <mxGeometry x="365" y="-375" width="80" height="80" as="geometry" />
        </mxCell>
        <mxCell id="xgO8xsjQDgBM6cpIgwpF-14" value="(1,1)" style="text;html=1;align=center;verticalAlign=middle;resizable=0;points=[];autosize=1;strokeColor=none;fillColor=none;" parent="1" vertex="1">
          <mxGeometry x="335" y="-443.25" width="50" height="30" as="geometry" />
        </mxCell>
      </root>
    </mxGraphModel>
  </diagram>
</mxfile>
